0.16m3min_grf.mot
version=1
nRows=12
nColumns 19
inDegrees=yes
endheader
time	1_ground_force_vx	1_ground_force_vy	1_ground_force_vz	1_ground_force_px	1_ground_force_py	1_ground_force_pz	1_ground_torque_x	1_ground_torque_y	1_ground_torque_z	2_ground_force_vx	2_ground_force_vy	2_ground_force_vz	2_ground_force_px	2_ground_force_py	2_ground_force_pz	2_ground_torque_x	2_ground_torque_y	2_ground_torque_z
            3.747500	          -17.142339	         1261.243282	         -103.781391	           -0.272128	            0.006408	           -0.450190	           -0.182941	           13.459827	           -1.107542	           50.349314	         1091.347270	           86.793281	           -0.232008	            0.005680	           -0.707098	           -0.403902	           -8.754788	           -0.696256
            3.748000	          -19.487026	         1259.272128	         -106.627149	           -0.271739	            0.006408	           -0.450024	           -0.197433	           12.758305	           -1.080292	           46.633133	         1095.388471	           85.870749	           -0.231610	            0.005680	           -0.706860	           -0.380869	           -8.946413	           -0.701336
            3.748500	          -22.105180	         1257.298168	         -108.830251	           -0.271368	            0.006407	           -0.449816	           -0.204291	           11.619670	           -1.005785	           42.824511	         1099.061844	           84.759230	           -0.231298	            0.005681	           -0.706667	           -0.357599	           -9.177547	           -0.707769
            3.749000	          -24.493483	         1254.962678	         -110.806191	           -0.270885	            0.006406	           -0.449683	           -0.208034	           10.658942	           -0.941125	           38.687647	         1102.736132	           82.990856	           -0.230944	            0.005681	           -0.706317	           -0.329407	           -9.389269	           -0.706627
            3.749500	          -26.331885	         1254.429814	         -112.729899	           -0.270350	            0.006405	           -0.449274	           -0.219180	           10.441543	           -0.938334	           34.832063	         1106.410172	           81.644708	           -0.230645	            0.005681	           -0.706103	           -0.300010	           -9.529568	           -0.703210
            3.750000	          -28.172316	         1251.917944	         -115.625097	           -0.269970	            0.006404	           -0.449185	           -0.243765	           10.832380	           -1.000461	           30.457727	         1111.003664	           80.114368	           -0.230305	            0.005682	           -0.706008	           -0.263340	           -9.605823	           -0.692675
            3.750500	          -29.875980	         1249.227546	         -118.842402	           -0.269587	            0.006404	           -0.449118	           -0.267709	           11.193910	           -1.064907	           25.954331	         1112.464567	           78.995263	           -0.229996	            0.005681	           -0.705550	           -0.223773	           -9.591434	           -0.681080
            3.751000	          -30.938059	         1247.077991	         -122.104820	           -0.269117	            0.006404	           -0.449049	           -0.278005	           11.206045	           -1.097215	           21.726507	         1115.401529	           77.412014	           -0.229506	            0.005683	           -0.705402	           -0.187716	           -9.637018	           -0.668836
            3.751500	          -32.824366	         1246.008088	         -124.902000	           -0.268697	            0.006403	           -0.448799	           -0.274813	           10.431850	           -1.045707	           18.530895	         1117.972302	           76.249358	           -0.229255	            0.005682	           -0.705039	           -0.163976	           -9.892700	           -0.674714
            3.752000	          -34.800111	         1242.591537	         -126.975306	           -0.268579	            0.006404	           -0.448990	           -0.265512	            9.480515	           -0.968775	           15.141862	         1122.199939	           74.998853	           -0.228967	            0.005683	           -0.704964	           -0.135712	          -10.057919	           -0.672191
            3.752500	          -37.188874	         1242.779704	         -128.940425	           -0.268191	            0.006402	           -0.448560	           -0.262255	            8.764038	           -0.909283	           11.711937	         1124.770368	           73.695520	           -0.228597	            0.005684	           -0.704799	           -0.105462	          -10.128169	           -0.663603
            3.753000	          -39.485315	         1240.083687	         -130.872301	           -0.267736	            0.006403	           -0.448712	           -0.275776	            8.661090	           -0.914049	            8.422625	         1127.340803	           72.532903	           -0.228276	            0.005684	           -0.704551	           -0.076358	          -10.220238	           -0.657568
